<?xml version="1.0" encoding="iso-8859-1"?>
<!-- Generator: Adobe Illustrator 19.0.0, SVG Export Plug-In . SVG Version: 6.00 Build 0)  -->
<svg version="1.1" id="Layer_1" xmlns="http://www.w3.org/2000/svg" xmlns:xlink="http://www.w3.org/1999/xlink" x="0px" y="0px"
	 viewBox="0 0 503.607 503.607" style="enable-background:new 0 0 503.607 503.607; fill:white;" xml:space="preserve">
<g transform="translate(1 1)">
	<g>
		<g>
			<path d="M351.525,410.279c23.502,0,41.967-18.466,41.967-41.967V99.721c0-23.502-18.466-41.967-41.967-41.967h-16.787v-8.393
				c0-9.233-7.554-16.787-16.787-16.787h-16.787V24.18c0-6.715-2.518-12.59-7.554-17.626C289.413,1.518,282.698-1,275.984-1h-50.361
				c-14.269,0-25.18,10.911-25.18,25.18v8.393h-16.787c-9.233,0-16.787,7.554-16.787,16.787v8.393h-16.787
				c-23.502,0-41.967,18.466-41.967,41.967v268.59c0,23.502,18.466,41.967,41.967,41.967h92.328v25.18h-33.574
				c-14.269,0-25.18,10.911-25.18,25.18h-67.148c-5.036,0-8.393,3.357-8.393,8.393s3.357,8.393,8.393,8.393h67.148
				c0,14.269,10.911,25.18,25.18,25.18h83.934c14.269,0,25.18-10.911,25.18-25.18h67.148c5.036,0,8.393-3.357,8.393-8.393
				s-3.357-8.393-8.393-8.393h-67.148c0-14.269-10.911-25.18-25.18-25.18h-33.574v-25.18H351.525z M301.164,460.639v16.787
				c0,5.036-3.357,8.393-8.393,8.393h-83.934c-5.036,0-8.393-3.357-8.393-8.393v-16.787c0-5.036,3.357-8.393,8.393-8.393h83.934
				C297.807,452.246,301.164,455.603,301.164,460.639z M183.656,49.361h25.18c5.036,0,8.393-3.357,8.393-8.393V24.18
				c0-5.036,3.357-8.393,8.393-8.393h50.361c2.518,0,5.036,0.839,5.875,2.518c1.679,1.679,2.518,3.357,2.518,5.875v16.787
				c0,5.036,3.357,8.393,8.393,8.393h25.18v16.787v16.787H183.656V66.148V49.361z M124.902,368.311V99.721
				c0-14.269,10.911-25.18,25.18-25.18h16.787v8.393c0,4.535,1.374,8.377,4.096,10.937c2.758,3.193,6.685,5.349,11.105,5.769
				c0.528,0.053,1.057,0.081,1.586,0.081h134.295c9.233,0,16.787-7.554,16.787-16.787v-8.393h16.787
				c14.269,0,25.18,10.911,25.18,25.18v268.59c0,14.269-10.911,25.18-25.18,25.18H150.082
				C135.813,393.492,124.902,382.58,124.902,368.311z"/>
			<path d="M343.131,242.41c0-51.2-41.128-92.328-92.328-92.328s-92.328,41.128-92.328,92.328s41.128,92.328,92.328,92.328
				S343.131,293.61,343.131,242.41z M175.262,242.41c0-41.967,33.574-75.541,75.541-75.541s75.541,33.574,75.541,75.541
				s-33.574,75.541-75.541,75.541S175.262,284.377,175.262,242.41z"/>
			<path d="M288.574,202.121c-4.197-2.518-9.233-1.679-11.751,2.518l-36.092,57.915l-17.626-17.626
				c-3.357-3.357-8.393-3.357-11.751,0c-3.357,3.357-3.357,8.393,0,11.751l25.18,25.18c1.679,1.679,3.357,2.518,5.875,2.518
				c0,0,0.839,0,0.839,0.839c2.518-0.839,4.197-1.679,5.875-4.197l41.967-67.148C293.61,209.675,292.77,204.639,288.574,202.121z"/>
		</g>
	</g>
</g>
<g>
</g>
<g>
</g>
<g>
</g>
<g>
</g>
<g>
</g>
<g>
</g>
<g>
</g>
<g>
</g>
<g>
</g>
<g>
</g>
<g>
</g>
<g>
</g>
<g>
</g>
<g>
</g>
<g>
</g>
</svg>
