<?xml version="1.0" encoding="iso-8859-1"?>
<!-- Generator: Adobe Illustrator 17.1.0, SVG Export Plug-In . SVG Version: 6.00 Build 0)  -->
<!DOCTYPE svg PUBLIC "-//W3C//DTD SVG 1.1//EN" "http://www.w3.org/Graphics/SVG/1.1/DTD/svg11.dtd">
<svg version="1.1" id="Capa_1" xmlns="http://www.w3.org/2000/svg" xmlns:xlink="http://www.w3.org/1999/xlink" x="0px" y="0px"
	 viewBox="0 0 392 392" style="enable-background:new 0 0 392 392; fill:blue;" xml:space="preserve">
<path d="M142.311,89.495c2.175,4.469,0.412,9.856-4.058,12.031C92.025,124.025,63.5,169.919,63.5,221.298v36.332
	c0,4.971-4.415,9.371-9.386,9.371H35.354C20.045,267,7.5,254.176,7.5,238.869v-41.042c0-12.095,7.786-22.717,19.325-26.432
	c4.729-1.522,9.836,1.078,11.359,5.809c1.522,4.731-1.101,9.802-5.832,11.325c-4.008,1.291-6.852,5.114-6.852,9.298v41.042
	c0,5.382,4.471,10.131,9.854,10.131H45.5v-27.702c0-28.889,7.988-56.972,23.464-81.214c15.06-23.589,36.102-42.519,61.219-54.743
	C134.655,83.166,140.135,85.025,142.311,89.495z M384.5,197.827v41.042c0,15.307-12.045,28.131-27.353,28.131h-16.621
	c-5.46,17-14.122,33.477-25.788,48.188c-19.169,24.173-45.546,41.749-74.88,50.601c-1.319,14.807-13.792,26.21-28.933,26.21h-29.35
	c-16.017,0-29.047-12.982-29.047-28.999c0-16.02,13.03-29.001,29.047-29.001h29.35c10.542,0,19.791,5.837,24.882,14.264
	c55.474-17.165,93.579-68.2,93.579-126.966c0-13.307-1.934-26.329-5.761-38.862c-17.421,13.779-39.419,22.015-63.304,22.015
	c-49.121,0-90.261-34.832-100.021-81.092c-0.021-0.089-0.042-0.179-0.061-0.27c-0.612-2.944-1.094-5.926-1.443-8.929
	c-0.457-3.915-0.691-7.892-0.691-11.927c0-17.125,4.234-33.282,11.708-47.476c0.099-0.226,0.206-0.451,0.322-0.669
	c14.619-27.331,40.46-46.183,70.106-52.1C246.594,0.718,253.152,0,259.863,0c0.021,0,0.042,0,0.064,0c0.027,0,0.058,0,0.085,0
	c0.024,0,0.053,0,0.075,0c0.027,0,0.052,0,0.079,0c0.025,0,0.059,0,0.083,0c0.047,0,0.098,0,0.145,0c0.024,0,0.058,0,0.083,0
	c0.03,0,0.052,0,0.079,0c0.022,0,0.052,0,0.075,0c0.027,0,0.057,0,0.086,0c0.02,0,0.042,0,0.063,0c6.671,0,13.19,0.71,19.504,1.965
	c29.694,5.891,55.586,24.762,70.223,52.128c0.115,0.215,0.221,0.436,0.317,0.658c7.478,14.196,11.714,30.359,11.714,47.488
	c0,4.245-0.26,8.432-0.765,12.543c-0.343,2.795-0.799,5.583-1.368,8.327c-0.021,0.103-0.045,0.228-0.069,0.33
	c-3.598,17.026-11.447,32.549-22.38,45.31c6.26,16.819,9.43,34.594,9.43,52.734c0,9.278-0.819,18.517-2.434,27.517h12.194
	c5.383,0,9.353-4.749,9.353-10.131v-41.042c0-4.185-2.645-8.008-6.653-9.298c-4.73-1.523-7.178-6.594-5.654-11.325
	c1.522-4.731,6.491-7.331,11.223-5.809C376.953,175.109,384.5,185.732,384.5,197.827z M221.974,363.146
	c0-0.734-0.072-1.258-0.209-1.952c-0.024-0.106-0.047-0.309-0.067-0.415c-1.123-4.912-5.526-8.779-10.771-8.779h-29.35
	c-6.091,0-11.047,4.906-11.047,10.998c0,6.095,4.956,11.002,11.047,11.002h29.35C217.018,374,221.974,369.238,221.974,363.146z
	 M304.605,78.207c0.774,7.773,1.174,15.829,1.174,24.027c0,8.349-0.414,16.551-1.217,24.457
	c13.817-2.665,26.936-6.598,39.018-11.732c0.292-1.923,0.52-3.868,0.68-5.831c0.186-2.29,0.279-4.592,0.279-6.894
	c0-11.559-2.339-22.577-6.571-32.613C327.375,73.27,316.185,76.144,304.605,78.207z M290.156,23.474
	c1.535,2.933,2.981,6.125,4.327,9.567c3.171,8.109,5.723,17.347,7.593,27.336c9.328-1.689,18.365-3.948,26.982-6.754
	C319.444,40.067,305.928,29.467,290.156,23.474z M236.402,62.875c15.713,1.575,32.129,1.576,47.84,0
	c-1.641-8.538-3.831-16.396-6.522-23.278c-6.229-15.929-13.266-21.581-17.397-21.581s-11.168,5.652-17.397,21.581
	C240.233,46.479,238.043,54.337,236.402,62.875z M177.167,114.958c12.081,5.134,25.101,9.067,38.918,11.732
	c-0.803-7.905-1.214-16.108-1.214-24.457c0-8.198,0.406-16.254,1.18-24.027c-11.579-2.063-22.756-4.937-33.35-8.586
	c-4.229,10.034-6.545,21.057-6.545,32.613c0,1.899,0.114,3.797,0.24,5.688c0.001,0.011,0.104,0.022,0.104,0.034
	c0,0.005,0,0.012,0,0.018C176.5,110.331,176.817,112.656,177.167,114.958z M230.488,180.993c-1.535-2.933-2.98-6.125-4.327-9.567
	c-3.025-7.736-5.486-16.5-7.33-25.963c-12.294-2.036-24.148-4.986-35.367-8.81C192.6,156.971,209.561,173.041,230.488,180.993z
	 M230.488,23.474c-15.771,5.993-29.287,16.594-38.902,30.15c8.617,2.806,17.654,5.064,26.983,6.753
	c1.869-9.99,4.421-19.228,7.592-27.336C227.508,29.599,228.953,26.407,230.488,23.474z M282.915,147.84
	c-14.853,1.294-30.331,1.294-45.186,0c1.436,6.143,3.174,11.862,5.195,17.03c6.229,15.929,13.266,21.581,17.397,21.581
	s11.168-5.652,17.397-21.581C279.741,159.702,281.479,153.983,282.915,147.84z M287.779,102.233c0-7.365-0.342-14.581-1.007-21.526
	c-17.387,1.797-35.514,1.797-52.9,0c-0.665,6.945-1.007,14.162-1.007,21.526c0,9.397,0.557,18.55,1.63,27.209
	c8.438,0.909,17.071,1.371,25.827,1.371s17.389-0.461,25.827-1.371C287.223,120.784,287.779,111.631,287.779,102.233z
	 M337.182,136.653c-11.222,3.825-23.072,6.774-35.368,8.81c-1.844,9.463-4.305,18.228-7.33,25.963
	c-1.346,3.442-2.792,6.634-4.327,9.567C311.084,173.041,328.046,156.971,337.182,136.653z"/>
<g>
</g>
<g>
</g>
<g>
</g>
<g>
</g>
<g>
</g>
<g>
</g>
<g>
</g>
<g>
</g>
<g>
</g>
<g>
</g>
<g>
</g>
<g>
</g>
<g>
</g>
<g>
</g>
<g>
</g>
</svg>
